<svg id="Capa_1" data-name="Capa 1" xmlns="http://www.w3.org/2000/svg" viewBox="0 0 162.06 215.79"><defs><style>.cls-1{fill:#fff;}</style></defs><title>j2</title><path class="cls-1" d="M571.93,655.38c0,11.5-.15,23,0,34.49.61,38.59-23.16,64.45-58,72.86-25.26,6.09-49.86,3.81-72.31-10.37-20.72-13.09-30.25-32.78-31.46-56.76-.45-9,.08-18-.17-27-.09-3.26,1-3.78,4-3.75,14.5.14,29,.21,43.49,0,3.58-.06,3.95,1.27,3.92,4.24-.1,8.33-.45,16.7.28,25,1.19,13.45,10.79,22.26,24.3,23a40.53,40.53,0,0,0,12.39-.84c10.71-2.73,17.65-10.64,17.73-21.62q.29-40,.05-80c0-3.81.95-4.64,4.64-4.58q23.49.33,47,0c3.6-.05,4.34,1,4.29,4.42C571.81,628.05,571.93,641.71,571.93,655.38Z" transform="translate(-409.96 -550.11)"/><path class="cls-1" d="M452.64,550.19c39,0,77.1,0,115.24-.08,3.23,0,4.18.79,4.14,4.09-.19,13.66-.15,27.32,0,41,0,2.73-.58,3.7-3.52,3.69q-42.48-.21-84.94-.12c-1.82,0-3.14-.31-4.12-2C470.65,581.43,461.83,566.14,452.64,550.19Z" transform="translate(-409.96 -550.11)"/></svg>